<svg width="1800" height="1000" viewBox="0 0 1800 1000" xmlns="http://www.w3.org/2000/svg">
  <defs>
    <radialGradient id="bg" cx="58%" cy="50%" r="76%">
      <stop offset="0" stop-color="#153b60"/>
      <stop offset="0.40" stop-color="#07182e"/>
      <stop offset="1" stop-color="#02040a"/>
    </radialGradient>
    <radialGradient id="impact" cx="50%" cy="50%" r="65%">
      <stop offset="0" stop-color="#38bdf8" stop-opacity="0.9"/>
      <stop offset="0.30" stop-color="#38bdf8" stop-opacity="0.25"/>
      <stop offset="1" stop-color="#02040a" stop-opacity="0"/>
    </radialGradient>
    <linearGradient id="gold" x1="0" y1="0" x2="1" y2="1">
      <stop offset="0" stop-color="#fff7d6"/>
      <stop offset="0.52" stop-color="#d8b76a"/>
      <stop offset="1" stop-color="#6f4708"/>
    </linearGradient>
    <filter id="glow" x="-60%" y="-60%" width="220%" height="220%">
      <feGaussianBlur stdDeviation="8" result="blur"/>
      <feMerge><feMergeNode in="blur"/><feMergeNode in="SourceGraphic"/></feMerge>
    </filter>
    <pattern id="grid" width="74" height="74" patternUnits="userSpaceOnUse"><path d="M74 0H0V74" stroke="#1e3a5f" stroke-width="1" opacity="0.25"/></pattern>
  </defs>

  <rect width="1800" height="1000" fill="url(#bg)"/>
  <rect width="1800" height="1000" fill="url(#grid)" opacity="0.55"/>
  <rect x="50" y="50" width="1700" height="900" rx="42" fill="none" stroke="#26364f" stroke-width="2"/>

  <text x="92" y="145" font-family="Georgia,serif" font-size="76" fill="#f8fafc">Elyria</text>
  <text x="94" y="220" font-family="Georgia,serif" font-size="50" fill="#d8b76a">Consequence Physics Engine</text>
  <path d="M96 250H715" stroke="url(#gold)" stroke-width="3"/>
  <text x="98" y="305" font-family="Inter,Arial" font-size="19" fill="#93c5fd" letter-spacing="7">CAUSE · PROPAGATE · CONSTRAIN · PROVE · ADMIT</text>

  <g transform="translate(990 520)">
    <circle cx="-725" cy="55" r="44" fill="#06111f" stroke="#38bdf8" stroke-width="4" filter="url(#glow)"/>
    <circle cx="-725" cy="55" r="105" fill="none" stroke="#38bdf8" stroke-width="2" opacity="0.28"/>
    <circle cx="-725" cy="55" r="165" fill="none" stroke="#38bdf8" stroke-width="2" opacity="0.18"/>
    <text x="-785" y="150" font-family="Inter,Arial" font-size="18" fill="#38bdf8" font-weight="900" letter-spacing="3">CAUSE</text>

    <g stroke="#38bdf8" stroke-width="4" fill="none" filter="url(#glow)">
      <path d="M-690 -118 C-515 -28 -325 10 -72 -12"/>
      <path d="M-692 55 C-472 35 -305 62 -72 48"/>
      <path d="M-690 228 C-500 164 -310 126 -72 96" opacity="0.75"/>
    </g>
    <g stroke="#d8b76a" stroke-width="3" fill="none" opacity="0.65" filter="url(#glow)">
      <path d="M-640 260 C-440 212 -260 145 -72 120"/>
    </g>

    <g stroke="#38bdf8" stroke-width="1.7" opacity="0.26" fill="none">
      <path d="M-590 -260 C-330 -360 -115 -210 -36 -110"/>
      <path d="M-590 342 C-320 435 -108 250 -36 136"/>
      <circle cx="-392" cy="52" r="72"/><circle cx="-275" cy="52" r="120"/><circle cx="-135" cy="52" r="175"/>
    </g>

    <path d="M0 -390 C-62 -220 -64 225 0 390" fill="none" stroke="url(#gold)" stroke-width="15" filter="url(#glow)"/>
    <path d="M-50 -378 C-112 -205 -112 205 -50 378" fill="none" stroke="#fff7d6" stroke-width="2" opacity="0.50"/>
    <path d="M44 -378 C96 -205 96 205 44 378" fill="none" stroke="#6f4708" stroke-width="2" opacity="0.50"/>
    <text x="0" y="-420" text-anchor="middle" font-family="Inter,Arial" font-size="18" fill="#d8b76a" font-weight="900" letter-spacing="4">PROOF BOUNDARY</text>

    <g transform="translate(0 -165)">
      <circle r="22" fill="#38bdf8" filter="url(#glow)"/>
      <path d="M15 0 C125 -20 240 -54 392 -88" stroke="#38bdf8" stroke-width="4" fill="none" stroke-dasharray="15 14" opacity="0.78"/>
      <path d="M210 -50 L270 -98" stroke="#38bdf8" stroke-width="2" opacity="0.45"/>
      <circle cx="410" cy="-92" r="38" fill="#06111f" stroke="#38bdf8" stroke-width="3"/>
      <text x="485" y="-90" font-family="Inter,Arial" font-size="19" fill="#38bdf8" font-weight="900">INVALID EFFECT REJECTED</text>
    </g>

    <g transform="translate(0 20)">
      <circle r="24" fill="#38bdf8" filter="url(#glow)"/>
      <path d="M18 0 C130 0 250 12 400 34" stroke="#38bdf8" stroke-width="10" fill="none" filter="url(#glow)"/>
      <circle cx="418" cy="36" r="39" fill="#06111f" stroke="#38bdf8" stroke-width="4"/>
      <text x="493" y="42" font-family="Inter,Arial" font-size="19" fill="#7dd3fc" font-weight="900">EFFECT SHAPED AND CONSTRAINED</text>
    </g>

    <g transform="translate(0 235)">
      <circle r="24" fill="#d8b76a" filter="url(#glow)"/>
      <path d="M18 0 C140 8 260 35 420 72" stroke="#d8b76a" stroke-width="12" fill="none" filter="url(#glow)"/>
      <circle cx="440" cy="78" r="42" fill="#06111f" stroke="#d8b76a" stroke-width="4"/>
      <path d="M423 78 L435 92 L462 58" stroke="#d8b76a" stroke-width="6" fill="none"/>
      <text x="510" y="83" font-family="Inter,Arial" font-size="19" fill="#d8b76a" font-weight="900">PROVEN EFFECT ADMITTED</text>
    </g>
  </g>

  <g transform="translate(98 780)" font-family="Inter,Arial">
    <rect x="0" y="0" width="630" height="110" rx="22" fill="#07111f" stroke="#26364f"/>
    <text x="32" y="42" font-size="20" fill="#d8b76a" font-weight="900" letter-spacing="4">CONSEQUENCE RULE</text>
    <text x="32" y="74" font-size="17" fill="#cbd5e1">cause may propagate only through proof; invalid effect stops before binding</text>
  </g>

  <text x="900" y="930" text-anchor="middle" font-family="Georgia,serif" font-size="31" fill="#fff3c4">Consequence is not observed after. It is governed before effect.</text>
</svg>